<?xml version="1.0" standalone="no"?><!DOCTYPE svg PUBLIC "-//W3C//DTD SVG 1.1//EN" "http://www.w3.org/Graphics/SVG/1.1/DTD/svg11.dtd"><svg width="32" height="32" viewBox="0 0 32 32" version="1.1" xmlns="http://www.w3.org/2000/svg" xmlns:xlink="http://www.w3.org/1999/xlink"><defs><style type="text/css"><![CDATA[
@font-face { font-family: ifont; src: url("http://at.alicdn.com/t/font_1442373896_4754455.eot?#iefix") format("embedded-opentype"), url("http://at.alicdn.com/t/font_1442373896_4754455.woff") format("woff"), url("http://at.alicdn.com/t/font_1442373896_4754455.ttf") format("truetype"), url("http://at.alicdn.com/t/font_1442373896_4754455.svg#ifont") format("svg"); }

]]></style></defs><g class="transform-group"><g transform="scale(0.03125, 0.03125)"><path d="M922.87944 885.099487c-20.547988 0-37.21867-16.670681-37.21867-37.211507l-0.349971-3.444449c0-0.675382 0.153496-1.25662 0.203638-1.866511-1.868557-102.345969-62.281485-190.206016-149.444661-231.462652-3.241834-4.624321-6.800893-9.073656-10.275018-13.554714-3.831258 0.8913-7.770987 1.5104-11.900028 1.5104-28.54308 0-51.716872-23.152303-51.716872-51.753711l-0.473791-4.816702c0-3.542686 0.347924-7.034207 1.01512-10.422374-0.783853-0.686638-1.595334-1.430582-2.446725-2.127454l4.556783-4.547573c5.184069-14.744819 16.756639-26.26827 31.492248-31.492248l2.805906-2.843768c44.052309-25.920346 73.831542-73.340355 73.831542-128.189567 0-69.526493-47.563272-127.792525-111.903649-144.403854-1.36509-2.408863-3.048429-4.508687-4.451382-6.840802-4.674463 2.264577-9.849322 3.676739-15.431457 3.676739-19.497053 0-35.354206-15.838733-35.354206-35.381835l-0.367367-3.270487c0-19.012006 15.007809-34.367739 33.756825-35.207873l1.683339-1.684362c116.201535 8.523117 207.894887 105.257276 207.894887 223.63436 0 70.716598-32.955576 133.500527-84.051301 174.640506 0.153496 1.479701 0.435928 2.892887 0.435928 4.460592 112.561635 52.40965 191.242625 165.157527 194.10686 296.819173 0.2415 1.691525 0.503467 3.328815 0.503467 5.126764l0.339738 3.444449C960.122669 868.428805 943.469384 885.099487 922.87944 885.099487zM538.188964 540.716019c114.538663 51.656497 194.803731 165.505451 197.657732 298.600749 0.251733 1.691525 0.572028 3.328815 0.572028 5.126764l0.310062 3.444449c0 20.540825-16.691147 37.211507-37.250392 37.211507-20.530592 0-37.239136-16.670681-37.239136-37.211507l-0.301875-3.444449c0-0.938372 0.193405-1.750877 0.261966-2.64013-2.795673-134.699842-107.298771-244.24477-239.898789-254.984369-7.073092 0.660032-14.19428 1.064238-21.393239 1.064238-7.217379 0-14.337543-0.405229-21.37175-1.064238-134.420479 10.914584-240.199641 123.206066-240.199641 260.470313 0 0.038886 0 0.085958 0 0.115634l-0.706081 0 0.049119 0.483001c0 20.540825-16.680914 37.211507-37.22174 37.211507-20.588921 0-37.250392-16.670681-37.250392-37.211507l-0.328481-3.444449c0-3.172249 0.493234-6.15314 1.218758-9.05626 4.373611-131.642203 84.437088-243.894799 198.132546-294.931173-52.769854-41.091884-86.808088-104.996332-86.808088-177.059602 0-123.978662 100.469226-224.495984 224.486774-224.495984 123.951033 0 224.469378 100.517321 224.469378 224.495984C625.375675 435.631682 591.152223 499.673254 538.188964 540.716019zM400.240125 213.565027c-82.45392 0-149.319817 66.875107-149.319817 149.308561 0 82.490759 66.865897 149.377122 149.319817 149.377122 82.490759 0 149.318794-66.88534 149.318794-149.377122C549.558919 280.440134 482.730884 213.565027 400.240125 213.565027z" fill="#FFF"></path></g></g></svg>