<?xml version="1.0" standalone="no"?><!DOCTYPE svg PUBLIC "-//W3C//DTD SVG 1.1//EN" "http://www.w3.org/Graphics/SVG/1.1/DTD/svg11.dtd"><svg width="32" height="32" viewBox="0 0 32 32" version="1.1" xmlns="http://www.w3.org/2000/svg" xmlns:xlink="http://www.w3.org/1999/xlink"><defs><style type="text/css"><![CDATA[
@font-face { font-family: ifont; src: url("http://at.alicdn.com/t/font_1442373896_4754455.eot?#iefix") format("embedded-opentype"), url("http://at.alicdn.com/t/font_1442373896_4754455.woff") format("woff"), url("http://at.alicdn.com/t/font_1442373896_4754455.ttf") format("truetype"), url("http://at.alicdn.com/t/font_1442373896_4754455.svg#ifont") format("svg"); }

]]></style></defs><g class="transform-group"><g transform="scale(0.03125, 0.03125)"><path d="M160.426667 308.565333 160.426667 308.565333 160.426667 723.626667c0 32.085333 26.624 58.709333 59.392 58.709333l589.824 0c32.768 0 59.392-26.624 59.392-58.709333L869.034667 308.565333c0-32.085333-26.624-58.709333-59.392-58.709333L219.818667 249.856C187.050667 250.538667 160.426667 276.48 160.426667 308.565333L160.426667 308.565333 160.426667 308.565333zM101.034667 308.565333c0-64.853333 53.248-117.418667 118.784-117.418667l589.824 0c65.536 0 118.784 53.248 118.784 117.418667L928.426667 723.626667c0 64.853333-53.248 117.418667-118.784 117.418667L219.818667 841.045333c-65.536 0-118.784-53.248-118.784-117.418667L101.034667 308.565333 101.034667 308.565333 101.034667 308.565333zM101.034667 308.565333M411.648 512.682667c23.210667-12.970667 38.912-40.96 38.912-73.045333 0-44.373333-30.037333-80.554667-66.901333-80.554667s-66.901333 36.181333-66.901333 80.554667c0 33.450667 17.066667 61.44 40.96 73.728-55.296 8.192-96.256 38.229333-96.256 73.728 0 42.325333 56.661333 75.776 126.976 75.776s126.976-34.133333 126.976-75.776C514.730667 550.229333 470.357333 519.509333 411.648 512.682667L411.648 512.682667 411.648 512.682667zM603.477333 427.349333l118.101333 0c16.384 0 29.354667-12.970667 29.354667-29.354667 0-16.384-12.970667-29.354667-29.354667-29.354667L603.477333 368.64c-16.384 0-29.354667 12.970667-29.354667 29.354667C574.122667 414.378667 587.093333 427.349333 603.477333 427.349333L603.477333 427.349333 603.477333 427.349333zM603.477333 545.450667 662.186667 545.450667c16.384 0 29.354667-12.970667 29.354667-29.354667 0-16.384-12.970667-29.354667-29.354667-29.354667l-59.392 0c-16.384 0-29.354667 12.970667-29.354667 29.354667C574.122667 532.48 587.093333 545.450667 603.477333 545.450667L603.477333 545.450667 603.477333 545.450667zM603.477333 663.552 662.186667 663.552c16.384 0 29.354667-12.970667 29.354667-29.354667s-12.970667-29.354667-29.354667-29.354667l-59.392 0c-16.384 0-29.354667 12.970667-29.354667 29.354667S587.093333 663.552 603.477333 663.552L603.477333 663.552 603.477333 663.552zM603.477333 663.552" fill="#FFF"></path></g></g></svg>